<?xml version="1.0" encoding="UTF-8" standalone="no"?>
<svg
   width="200"
   height="200"
   viewBox="0 0 200 200"
   version="1.1"
   id="svg3"
   sodipodi:docname="jaguar-logo_l.svg"
   xml:space="preserve"
   inkscape:version="1.4 (86a8ad7, 2024-10-11)"
   xmlns:inkscape="http://www.inkscape.org/namespaces/inkscape"
   xmlns:sodipodi="http://sodipodi.sourceforge.net/DTD/sodipodi-0.dtd"
   xmlns="http://www.w3.org/2000/svg"
   xmlns:svg="http://www.w3.org/2000/svg"><defs
     id="defs3" /><sodipodi:namedview
     id="namedview3"
     pagecolor="#505050"
     bordercolor="#eeeeee"
     borderopacity="1"
     inkscape:showpageshadow="0"
     inkscape:pageopacity="0"
     inkscape:pagecheckerboard="0"
     inkscape:deskcolor="#505050"
     inkscape:zoom="3.695"
     inkscape:cx="120.2977"
     inkscape:cy="101.08254"
     inkscape:window-width="1920"
     inkscape:window-height="974"
     inkscape:window-x="2869"
     inkscape:window-y="-8"
     inkscape:window-maximized="1"
     inkscape:current-layer="svg3" /><!-- Candado --><!-- Jaguar estilizado --><!-- Corchetes --><path
     style="fill:#ffffff;fill-rule:evenodd;stroke-width:0"
     d=""
     id="path81" /><path
     style="fill:#ffffff;fill-rule:evenodd;stroke-width:0"
     d=""
     id="path83" /><path
     style="fill:#3d2d15;fill-opacity:1;fill-rule:evenodd;stroke-width:0"
     d="m 35.84187,144.26524 c -0.407063,-0.11084 -1.221616,-0.5253 -1.810119,-0.92101 -2.218941,-1.49201 -12.679087,-9.00985 -16.414939,-11.7976 -5.079345,-3.79029 -8.1901493,-5.978 -10.366057,-7.29004 -2.5865086,-1.55965 -4.354808,-2.92004 -5.0879955,-3.91434 l -0.6466738,-0.87697 0.03758,-9.78548 c 0.035102,-9.14037 0.0663,-9.822015 0.4732544,-10.339777 0.7507851,-0.955219 3.5370176,-3.034 7.2104928,-5.379685 4.3725891,-2.7921 9.7669671,-6.593812 16.3895331,-11.5506 7.915673,-5.92464 10.091691,-7.422785 10.784175,-7.424693 0.495571,-0.0012 0.737602,0.978771 0.55462,2.246007 -0.09472,0.655918 -0.09582,2.090977 -0.0024,3.189014 0.09335,1.09804 0.09876,4.502332 0.01202,7.565093 l -0.157711,5.568655 -0.706776,0.695458 c -0.388727,0.382502 -2.509056,1.979898 -4.711844,3.549773 -4.730713,3.371465 -13.575253,9.918815 -14.665614,10.856525 -0.421121,0.36216 -0.765675,0.87069 -0.765675,1.13005 0,0.75826 1.053112,1.84734 3.12856,3.23542 1.06517,0.7124 4.003995,2.81324 6.530719,4.66854 2.526728,1.85531 5.657667,4.05525 6.95764,4.88875 2.474121,1.58633 4.340017,3.26751 4.36621,3.93394 0.0085,0.21584 0.04911,3.82981 0.09027,8.03104 0.07223,7.37183 -0.01057,9.98557 -0.31482,9.94345 -0.07934,-0.0109 -0.477309,-0.11065 -0.884372,-0.22152 z"
     id="path87" /><path
     style="fill:#15253d;fill-opacity:1;fill-rule:evenodd;stroke-width:0"
     d="m 163.42136,144.01646 c -0.20052,-0.35211 -0.28584,-2.96203 -0.30278,-9.26107 l -0.0236,-8.77076 0.63701,-0.7849 c 0.35036,-0.4317 1.67556,-1.48452 2.94491,-2.3396 1.26934,-0.85508 4.05716,-2.86803 6.19516,-4.47322 2.138,-1.60519 4.94745,-3.5719 6.2432,-4.37047 3.36578,-2.07431 4.27836,-2.81848 4.60823,-3.75786 0.28038,-0.7984 0.26837,-0.82774 -0.65663,-1.60418 -1.25469,-1.05317 -6.3547,-4.79577 -9.74246,-7.14941 -5.0623,-3.517023 -8.34012,-5.880029 -9.20062,-6.632784 -1.17447,-1.027411 -1.50466,-2.546255 -1.26707,-5.828499 0.0969,-1.339526 0.24324,-4.974982 0.32507,-8.078791 0.13701,-5.196267 0.18241,-5.649336 0.57301,-5.719683 0.4561,-0.08214 2.05719,0.99465 7.36516,4.953268 5.65103,4.214476 17.74728,12.768012 20.76535,14.683646 3.24294,2.05836 4.99272,3.455866 5.72918,4.57575 0.49308,0.749793 0.50169,0.934343 0.47608,10.200683 -0.0214,7.72993 -0.0872,9.54823 -0.36418,10.05151 -0.53612,0.97434 -3.34116,3.14237 -11.66115,9.01299 -3.04503,2.14859 -6.80861,4.86794 -8.36353,6.04297 -1.5549,1.17506 -4.36435,3.20962 -6.2432,4.52124 -1.87884,1.31161 -3.84015,2.76394 -4.35845,3.22737 -1.12509,1.00595 -2.65335,1.99208 -3.08729,1.99208 -0.17171,0 -0.43785,-0.22063 -0.59141,-0.49028 z"
     id="path88" /><path
     style="fill:none;fill-opacity:1;fill-rule:evenodd;stroke-width:1.9;stroke-dasharray:none;stroke:#ffffff;stroke-opacity:1"
     d="m 87.705495,166.75485 c -2.95055,-0.4516 -6.635971,-1.34239 -9.421189,-2.27716 -2.518389,-0.84523 -10.721947,-4.612 -10.721947,-4.92314 0,-0.2746 1.538875,-0.40948 5.889807,-0.51628 4.042779,-0.0992 5.757385,-0.39718 6.215779,-1.08013 0.195472,-0.29122 0.163154,-0.46628 -0.138397,-0.74967 -0.311926,-0.29315 -1.116709,-0.40684 -3.885286,-0.54884 -3.198387,-0.16405 -6.690419,-0.65361 -9.209625,-1.29112 -0.713493,-0.18056 -0.99261,-0.36665 -0.99261,-0.66179 0,-0.56344 0.279966,-0.63356 4.086904,-1.02384 4.207962,-0.43139 7.58621,-1.06881 9.184037,-1.7329 1.532093,-0.63679 2.984921,-1.80393 2.984921,-2.39799 0,-0.37718 -0.115392,-0.42667 -0.765675,-0.32837 -0.421122,0.0637 -1.401775,0.33581 -2.179228,0.60481 -1.108473,0.38351 -2.099986,0.51201 -4.594043,0.59542 -3.454875,0.11555 -4.99365,-0.13907 -4.190757,-0.69342 0.221807,-0.15315 1.016931,-0.40191 1.766941,-0.55285 1.455742,-0.29293 5.952931,-1.65123 6.852393,-2.06965 0.390939,-0.18186 0.521828,-0.409 0.471183,-0.81763 -0.06699,-0.54057 -0.144926,-0.5687 -1.746431,-0.63026 -1.118584,-0.0429 -2.637702,0.12273 -4.565915,0.49817 -2.792003,0.54361 -5.655181,0.74246 -5.655181,0.39275 0,-0.0934 2.464883,-1.11448 5.47752,-2.26901 5.200795,-1.99311 6.773271,-2.81728 6.773271,-3.55 0,-0.19807 -0.679182,-0.23872 -2.650411,-0.15867 -2.159129,0.0876 -3.060966,0.23835 -4.865327,0.81285 -2.341993,0.74566 -4.705834,0.88715 -4.914012,0.29412 -0.122076,-0.34773 1.738765,-1.13974 4.562775,-1.94197 2.476028,-0.70336 5.261196,-1.86805 5.718252,-2.39121 0.537747,-0.61553 0.150144,-1.79083 -1.193432,-3.6188 -2.523274,-3.43298 -4.748053,-4.91106 -7.689754,-5.10887 -2.031977,-0.13663 -3.617311,0.45561 -5.003944,1.86938 -1.392919,1.42017 -1.807458,2.49081 -2.207083,5.70027 -0.395635,3.17747 -0.463895,3.32614 -2.889245,6.29349 -3.068478,3.75419 -4.207527,4.571 -5.061227,3.62942 -0.426182,-0.47008 -2.202428,-3.39687 -3.258509,-5.36918 -1.734674,-3.23965 -4.514642,-10.58745 -5.73812,-15.16654 -1.327726,-4.96927 -1.429618,-5.92464 -1.428606,-13.39526 0.0014,-9.32663 0.321605,-10.89827 3.841914,-18.848784 2.300291,-5.195137 2.170059,-4.232752 2.392986,-17.68375 0.107977,-6.51497 0.266872,-12.144302 0.353098,-12.509628 0.08623,-0.365324 0.362992,-1.660568 0.615031,-2.87832 1.343043,-6.489015 3.518971,-10.552228 7.644021,-14.274028 4.162099,-3.755235 9.713578,-6.341389 15.890336,-7.402505 4.918828,-0.845018 18.671112,-1.196285 31.91421,-0.815171 13.12635,0.377753 14.78865,0.58961 18.63259,2.374714 6.53898,3.036668 11.51261,8.511656 14.63532,16.110625 1.09331,2.660514 2.55563,8.143362 2.89913,10.870053 0.16621,1.319488 0.24563,4.227763 0.19653,7.197799 l -0.0824,4.983703 1.20688,1.769282 c 5.53876,8.119803 9.08755,15.613455 10.80784,22.82199 2.23619,9.37016 1.93519,18.89483 -0.84427,26.71548 -3.65131,10.27389 -11.30911,19.43112 -21.78593,26.05168 -7.85345,4.9628 -16.76936,8.28061 -26.2547,9.76993 -3.9578,0.62143 -13.896688,0.80808 -17.080429,0.3208 z m 19.880075,-22.70221 c 1.80353,-0.27502 2.59327,-0.6302 4.15033,-1.86658 1.66651,-1.32329 2.43544,-1.6385 4.39921,-1.80335 3.2129,-0.2697 4.00317,-0.92977 5.93082,-4.95376 1.34393,-2.80544 1.94938,-3.09973 6.37719,-3.09973 4.2879,0 5.42756,-0.42196 6.59792,-2.44286 1.27183,-2.19609 2.66491,-8.58424 2.38287,-10.92702 -0.36848,-3.06085 -1.8692,-5.54123 -5.11108,-8.44756 -2.89663,-2.59683 -6.1297,-4.63302 -15.6295,-9.8435 -12.62589,-6.925095 -14.06504,-7.946953 -15.76347,-11.192669 -1.252981,-2.394483 -1.338937,-3.435671 -0.43369,-5.253668 1.63165,-3.276862 4.16257,-6.232881 7.06872,-8.256042 3.45649,-2.406274 4.4908,-3.632352 3.35102,-3.972322 -0.61494,-0.18343 -13.637752,0.277111 -16.219284,0.573577 -4.438609,0.509741 -6.680239,1.846247 -10.234096,6.101778 -1.93908,2.321929 -3.055822,3.480544 -8.533041,8.85296 -5.48251,5.377604 -6.743631,6.809741 -8.100911,9.199397 -1.332665,2.346338 -1.640851,3.400399 -2.018296,6.903049 -0.214343,1.98912 -0.527805,3.6169 -0.858973,4.46057 -0.469913,1.19713 -0.529985,1.83187 -0.607694,6.42087 -0.09494,5.60668 0.005,6.14211 1.169786,6.26924 0.865786,0.0945 1.541876,-0.62994 3.15766,-3.38344 2.883923,-4.9146 5.44131,-7.79622 7.848018,-8.84303 0.98747,-0.42951 1.456199,-0.46209 6.36677,-0.4426 8.209604,0.0326 14.564744,0.82393 18.563711,2.31154 2.60298,0.9683 4.61573,2.26634 8.05591,5.19533 3.5042,2.98348 4.52648,3.63241 9.3082,5.90875 4.26608,2.03087 6.05654,3.10144 7.15707,4.27941 1.63608,1.75122 0.45011,2.03745 -3.6316,0.87649 -7.92243,-2.25341 -11.30489,-3.95845 -17.78478,-8.96505 -4.17627,-3.22675 -4.813208,-3.57342 -6.812313,-3.70784 -2.985408,-0.20075 -4.460107,0.57753 -9.555368,5.04288 -3.273241,2.86858 -4.031649,3.32559 -6.596585,3.97508 -2.885462,0.73065 -3.647458,1.66896 -3.650364,4.49501 -0.0014,1.18885 0.1818,1.61716 2.649096,6.19946 2.438294,4.52842 2.721441,4.95499 3.537888,5.32987 0.836077,0.3839 0.986155,0.38742 2.591507,0.0608 0.937234,-0.19069 2.711204,-0.60558 3.942173,-0.92195 2.013706,-0.51754 2.545232,-0.56554 5.300829,-0.47867 3.026464,0.0954 5.004377,0.47752 4.324087,0.83533 -0.361178,0.18994 -3.10484,0.54805 -5.855443,0.76423 -4.103115,0.32249 -8.164228,1.17229 -9.10355,1.90493 -0.490814,0.38281 -0.381854,1.21058 0.249963,1.89905 0.545036,0.59391 0.646018,0.61746 2.297023,0.5356 0.949814,-0.0471 2.36303,-0.0863 3.140479,-0.0871 2.00749,-0.002 10.310258,0.48935 10.447708,0.61853 0.20999,0.19733 4.6082,0.10774 6.13408,-0.12491 z M 74.609418,123.59572 c 0.983207,-0.5413 2.953828,-1.49775 4.379161,-2.12545 7.151876,-3.14957 7.867595,-3.51902 9.147769,-4.72213 2.256647,-2.12079 3.14627,-4.69757 2.046077,-5.92644 l -0.467961,-0.5227 -0.459124,0.55125 c -0.252513,0.30319 -0.894405,1.31902 -1.426426,2.2574 -1.530279,2.69912 -2.559967,3.30626 -7.233214,4.26492 -4.860374,0.99704 -6.033952,1.32197 -7.235842,2.00339 -1.369539,0.77647 -2.263613,2.1518 -2.263613,3.48205 0,2.00747 0.873613,2.1909 3.513173,0.73771 z M 133.37328,96.469419 c 1.19069,-1.031461 2.19387,-2.662847 2.40673,-3.913804 0.12071,-0.709498 -0.003,-1.248381 -0.60411,-2.644318 -1.43174,-3.321485 -1.41212,-3.669441 0.34557,-6.132495 2.31986,-3.2508 2.84585,-4.882796 2.67135,-8.288439 -0.0888,-1.732013 -0.23952,-2.453271 -0.71822,-3.435979 -0.80763,-1.657856 -2.28897,-3.12441 -3.91308,-3.873971 -1.21837,-0.5623 -1.55483,-0.613406 -4.0384,-0.613406 -2.51515,0 -2.81062,0.04639 -4.12287,0.647261 -0.88538,0.405414 -2.04922,1.241663 -3.11479,2.238045 -2.63688,2.465684 -3.48713,4.442372 -3.95572,9.196286 -0.14564,1.477498 -0.25709,1.705806 -2.36421,4.842797 -1.45686,2.168944 -1.33321,3.16232 0.66657,5.35479 1.77799,1.949305 3.17086,2.567739 3.57177,1.585869 0.0775,-0.189764 0.2987,-1.40258 0.4916,-2.695143 0.72884,-4.883904 2.25122,-8.452888 4.54984,-10.666381 1.65968,-1.598229 2.34825,-1.794033 3.7735,-1.073052 2.28493,1.155856 2.44665,2.999577 0.65092,7.421042 -1.04287,2.567768 -1.08891,2.778741 -1.08721,4.981709 0.002,2.412302 0.2975,4.721747 0.74797,5.842937 0.14677,0.365326 0.589,0.988038 0.98274,1.383807 0.99233,0.997473 1.77313,0.957272 3.06005,-0.157555 z M 66.016462,69.919381 c 4.793535,-3.418048 8.300704,-5.037269 16.034815,-7.403083 6.151929,-1.881832 7.180563,-2.013698 15.784682,-2.02353 7.252691,-0.0082 7.672441,0.01465 11.054611,0.604182 4.6597,0.812213 6.88683,1.356626 9.44191,2.308041 2.08498,0.776365 5.74083,2.456991 7.48348,3.44021 0.76809,0.433372 0.91749,0.455911 1.11544,0.168283 0.57513,-0.835649 0.0167,-3.461482 -1.20005,-5.64295 -2.70708,-4.853462 -8.16651,-8.100019 -16.17491,-9.618745 -4.90352,-0.929914 -6.2104,-1.007432 -17.021309,-1.009698 -11.46779,-0.0025 -11.940546,0.03843 -16.539551,1.428174 -2.6001,0.785709 -4.476087,2.019255 -7.73784,5.087969 -2.666335,2.508537 -3.714777,4.072742 -5.054611,7.541156 -0.856045,2.21603 -1.105826,5.539603 -0.466234,6.203792 0.232231,0.241164 0.584791,0.438487 0.783461,0.438487 0.198675,0 1.32192,-0.685028 2.496106,-1.522288 z"
     id="path89" /><path
     style="fill:none;fill-opacity:1;fill-rule:evenodd;stroke-width:1.9;stroke-dasharray:none;stroke:#ffffff;stroke-opacity:1"
     d="m 71.902961,105.92012 c -0.630006,-0.32363 -0.757931,-0.55036 -1.049132,-1.85947 -0.627291,-2.82001 -0.215626,-4.972641 1.40029,-7.322267 0.943015,-1.371192 2.763253,-2.712968 3.68038,-2.712968 0.807697,0 1.674512,0.787535 1.937156,1.75998 0.560379,2.074809 -1.335262,7.282805 -3.334846,9.162015 -0.984596,0.92532 -1.997736,1.29948 -2.633848,0.97271 z"
     id="path90" /><path
     style="fill:none;fill-opacity:1;fill-rule:evenodd;stroke-width:1.9;stroke-dasharray:none;stroke:#ffffff;stroke-opacity:1"
     d="m 80.266506,91.903878 c -1.355828,-1.357071 -0.113934,-4.629364 2.18536,-5.758258 1.048446,-0.51476 2.373239,-0.401404 3.033335,0.259543 0.843352,0.84445 0.797169,2.712492 -0.102736,4.155624 -0.851292,1.365174 -1.809659,1.912871 -3.349017,1.913936 -0.981754,6.9e-4 -1.298027,-0.101504 -1.766942,-0.570845 z"
     id="path91" /><path
     style="fill:none;fill-opacity:1;fill-rule:evenodd;stroke-width:1.9;stroke-dasharray:none;stroke:#ffffff;stroke-opacity:1"
     d="m 89.759956,86.172477 c -0.862972,-0.68243 -1.465481,-2.282647 -1.465481,-3.892189 0,-3.017636 4.558273,-7.715882 7.503615,-7.734025 0.58272,-0.0036 0.992465,0.186137 1.565958,0.725104 0.91609,0.860938 1.293366,1.976278 1.295172,3.828911 0.0036,3.252043 -3.738057,7.19887 -7.168299,7.562229 -0.812972,0.08611 -1.10802,0.0025 -1.730965,-0.49003 z"
     id="path92" /><path
     style="fill:none;fill-opacity:1;fill-rule:evenodd;stroke-width:1.9;stroke-dasharray:none;stroke:#ffffff;stroke-opacity:1"
     d="m 83.035013,102.34997 c -1.014824,-0.3525 -0.950604,-0.30674 -1.287881,-0.91771 -0.574672,-1.041 1.472506,-3.081666 3.67285,-3.661169 1.321397,-0.348015 2.617979,-2.7e-5 3.446109,0.924906 1.169284,1.305953 0.535847,2.776903 -1.458072,3.385903 -1.717746,0.52465 -3.346848,0.62451 -4.373006,0.26807 z"
     id="path93" /><path
     style="fill:none;fill-opacity:1;fill-rule:evenodd;stroke-width:1.9;stroke-dasharray:none;stroke:#ffffff;stroke-opacity:1"
     d="m 95.601739,104.68595 c -1.158701,-0.584 -1.711654,-1.37463 -1.69623,-2.42528 0.02532,-1.72392 1.905623,-4.340454 4.03547,-5.615529 1.992499,-1.192847 4.083691,-0.679208 5.371071,1.319237 1.3793,2.141142 -0.11436,4.711512 -3.811452,6.558932 -1.368201,0.68368 -2.750675,0.74135 -3.898859,0.16264 z"
     id="path94" /><path
     style="fill:none;fill-opacity:1;fill-rule:evenodd;stroke-width:1.9;stroke-dasharray:none;stroke:#ffffff;stroke-opacity:1"
     d="m 113.11726,112.21413 c -1.02035,-0.71241 -2.45356,-1.80927 -3.18493,-2.43745 -2.22154,-1.90814 -2.83133,-3.79516 -1.2264,-3.79516 0.82732,0 3.62193,1.41231 4.92089,2.48688 2.0407,1.68816 3.19386,3.88643 2.46918,4.70705 -0.49752,0.56338 -1.05073,0.38484 -2.97874,-0.96132 z"
     id="path95" /><path
     style="fill:none;fill-opacity:1;fill-rule:evenodd;stroke-width:1.9;stroke:#ffffff;stroke-opacity:1;stroke-dasharray:none"
     d="m 125.98771,118.62086 c -1.17776,-0.34561 -2.03679,-0.88703 -3.09611,-1.95134 -2.65359,-2.66613 -3.70797,-5.12273 -2.53117,-5.89738 1.25862,-0.8285 2.93572,-0.21716 5.08528,1.85371 3.1435,3.02841 3.88856,5.6502 1.72148,6.05758 -0.32394,0.0609 -0.85472,0.0327 -1.17948,-0.0626 z"
     id="path96" /><path
     style="fill:#4185c6;fill-opacity:1;fill-rule:evenodd;stroke-width:0"
     d="m 35.16843,143.84378 c -0.927398,-0.43417 -9.376797,-6.41984 -17.677651,-12.52306 -5.595338,-4.114 -7.6213357,-5.54005 -9.8866352,-6.95893 -2.7902776,-1.74772 -4.7792089,-3.27818 -5.4301417,-4.17845 l -0.5774592,-0.79865 0.022131,-7.86398 c 0.012165,-4.3252 0.091685,-8.77916 0.1766946,-9.8977 0.1412647,-1.858758 0.215365,-2.094284 0.861338,-2.737806 0.8392597,-0.836073 4.0956043,-3.170176 8.0101355,-5.741557 3.880911,-2.549295 8.434867,-5.778135 14.844381,-10.524944 9.884799,-7.320569 10.969185,-7.995873 11.281544,-7.025607 0.0686,0.213102 0.09902,4.294731 0.06759,9.070282 l -0.05715,8.68282 -0.699595,0.69426 c -0.384776,0.381843 -2.766919,2.1974 -5.293645,4.034568 -10.354042,7.528374 -14.604416,10.809814 -14.760963,11.395994 -0.314308,1.17691 0.244081,1.67896 8.18537,7.35955 2.638686,1.88752 6.1289,4.34387 7.756035,5.45858 1.627132,1.11471 3.405394,2.48244 3.951688,3.03943 l 0.993267,1.0127 v 8.6218 c 0,4.742 -0.06435,8.77939 -0.143002,8.97202 -0.187173,0.4584 -0.485597,0.44163 -1.62394,-0.0914 z"
     id="path97" /><path
     style="fill:#4185c6;fill-opacity:1;fill-rule:evenodd;stroke-width:0"
     d="m 163.42574,144.02416 c -0.41748,-0.73314 -0.48171,-17.57998 -0.0699,-18.3597 0.36465,-0.69055 1.47777,-1.63369 3.32409,-2.81645 0.74943,-0.48009 3.32391,-2.33417 5.72104,-4.12016 2.39716,-1.78599 5.70426,-4.09102 7.34911,-5.12229 4.11066,-2.57723 4.81543,-3.56057 3.44489,-4.80656 -0.84906,-0.77189 -6.8872,-5.17538 -13.85669,-10.105403 -6.10043,-4.315279 -5.83125,-4.078621 -6.27655,-5.518179 -0.31748,-1.02638 -0.35437,-1.74225 -0.20708,-4.018732 0.0986,-1.523439 0.246,-5.259556 0.32763,-8.302481 0.13655,-5.090714 0.18229,-5.538695 0.57279,-5.609012 0.43435,-0.07821 3.08626,1.694873 7.23237,4.835637 4.29693,3.255019 17.24901,12.42711 20.47997,14.503009 3.62695,2.330337 5.39764,3.734304 6.14717,4.874058 0.49308,0.749793 0.5017,0.934343 0.47608,10.200683 -0.0214,7.72993 -0.0872,9.54823 -0.36418,10.05151 -0.53388,0.97027 -4.31256,3.90203 -11.6034,9.00272 -2.49495,1.74549 -6.04651,4.30141 -7.89234,5.67983 -1.84581,1.37842 -4.89328,3.58392 -6.77212,4.90111 -1.87885,1.3172 -3.84016,2.77034 -4.35847,3.22921 -1.13555,1.0053 -2.65829,1.98378 -3.08728,1.98378 -0.17173,0 -0.43589,-0.21717 -0.58704,-0.48258 z"
     id="path98" /></svg>
